<?xml version="1.0" encoding="UTF-8"?>
<svg xmlns="http://www.w3.org/2000/svg" xmlns:xlink="http://www.w3.org/1999/xlink" width="50px" height="50px" viewBox="0 0 50 50" version="1.1">
<defs>
<clipPath id="clip1">
  <path d="M 9.113281 31.054688 L 42.121094 31.054688 L 42.121094 43.546875 L 9.113281 43.546875 Z M 9.113281 31.054688 "/>
</clipPath>
<clipPath id="clip2">
  <path d="M 29.492188 14.648438 L 49.433594 14.648438 L 49.433594 36.394531 L 29.492188 36.394531 Z M 29.492188 14.648438 "/>
</clipPath>
<clipPath id="clip3">
  <path d="M 3.90625 6.457031 L 31.183594 6.457031 L 31.183594 43.230469 L 3.90625 43.230469 Z M 3.90625 6.457031 "/>
</clipPath>
</defs>
<g id="surface1">
<path style=" stroke:none;fill-rule:nonzero;fill:rgb(100%,100%,100%);fill-opacity:1;" d="M 39.464844 35.597656 C 34.402344 35.597656 30.339844 31.484375 30.339844 26.410156 C 30.339844 26.304688 30.328125 26.199219 30.339844 26.09375 C 30.359375 25.945312 30.339844 25.785156 30.339844 25.617188 C 30.339844 25.59375 30.339844 25.574219 30.339844 25.550781 L 30.339844 23.496094 C 30.339844 23.667969 30.328125 23.824219 30.296875 23.972656 C 30.085938 25.425781 29.023438 26.613281 27.636719 26.992188 C 27.574219 27.003906 27.519531 27.023438 27.457031 27.035156 C 27.394531 27.046875 27.328125 27.058594 27.265625 27.078125 C 27.222656 27.078125 27.195312 27.078125 27.160156 27.089844 C 27.121094 27.101562 27.078125 27.101562 27.046875 27.109375 C 26.96875 27.109375 26.90625 27.109375 26.84375 27.121094 C 26.78125 27.121094 26.714844 27.121094 26.652344 27.121094 C 26.324219 27.121094 25.996094 27.078125 25.6875 26.992188 C 25.582031 26.972656 25.488281 26.941406 25.382812 26.898438 C 25.160156 26.8125 24.949219 26.71875 24.746094 26.589844 C 24.640625 26.527344 24.546875 26.464844 24.449219 26.390625 C 24.355469 26.324219 24.261719 26.25 24.175781 26.167969 C 23.433594 25.488281 22.96875 24.515625 22.96875 23.433594 L 22.96875 7.382812 L 23.011719 7.382812 C 23.371094 7.382812 23.730469 7.402344 24.082031 7.46875 C 23.464844 7.320312 22.832031 7.246094 22.164062 7.246094 C 17.632812 7.246094 13.945312 10.921875 13.945312 15.453125 L 13.9375 17.003906 C 13.9375 19.027344 12.296875 20.667969 10.273438 20.667969 L 8.453125 20.667969 C 9.183594 20.667969 9.828125 21.113281 10.105469 21.75 C 10.136719 21.800781 10.15625 21.855469 10.179688 21.910156 C 10.1875 21.949219 10.210938 21.992188 10.21875 22.035156 C 10.21875 22.054688 10.230469 22.066406 10.230469 22.085938 C 10.261719 22.183594 10.273438 22.289062 10.273438 22.382812 C 10.273438 22.417969 10.28125 22.460938 10.28125 22.492188 C 10.28125 22.542969 10.28125 22.597656 10.273438 22.648438 C 10.273438 22.679688 10.261719 22.714844 10.261719 22.734375 C 10.261719 22.765625 10.25 22.796875 10.242188 22.820312 C 10.242188 22.859375 10.230469 22.902344 10.21875 22.945312 C 10.210938 23.019531 10.1875 23.09375 10.15625 23.160156 C 10.144531 23.179688 10.136719 23.199219 10.125 23.222656 C 10.125 23.242188 10.113281 23.265625 10.105469 23.285156 C 10.082031 23.328125 10.0625 23.371094 10.03125 23.410156 C 10.007812 23.453125 10 23.484375 9.964844 23.519531 C 9.945312 23.539062 9.933594 23.570312 9.914062 23.59375 C 9.859375 23.667969 9.808594 23.730469 9.742188 23.792969 C 9.667969 23.867188 9.585938 23.941406 9.488281 24.003906 C 9.425781 24.058594 9.351562 24.101562 9.277344 24.132812 C 9.246094 24.152344 9.203125 24.175781 9.160156 24.183594 C 9.117188 24.207031 9.066406 24.226562 9.023438 24.238281 C 9 24.25 8.980469 24.257812 8.96875 24.257812 C 8.9375 24.257812 8.917969 24.269531 8.894531 24.28125 C 8.875 24.28125 8.855469 24.28125 8.832031 24.292969 C 8.78125 24.300781 8.738281 24.3125 8.6875 24.3125 C 8.675781 24.324219 8.652344 24.324219 8.632812 24.324219 C 8.578125 24.332031 8.515625 24.332031 8.453125 24.332031 L 4.703125 24.332031 L 4.703125 24.875 C 4.703125 28.179688 6.90625 30.976562 9.933594 31.867188 L 9.933594 31.878906 C 12.792969 38.289062 19.210938 42.757812 26.671875 42.757812 C 32.667969 42.757812 37.992188 39.867188 41.328125 35.40625 C 40.722656 35.53125 40.101562 35.597656 39.464844 35.597656 "/>
<path style=" stroke:none;fill-rule:nonzero;fill:rgb(100%,100%,100%);fill-opacity:1;" d="M 43.953125 18.402344 L 42.546875 19.28125 L 36.4375 19.28125 L 35.019531 18.378906 L 30.339844 15.453125 L 30.339844 23.433594 C 30.339844 23.453125 30.339844 23.476562 30.339844 23.496094 L 30.339844 25.550781 C 30.339844 25.574219 30.339844 25.59375 30.339844 25.617188 C 30.339844 25.785156 30.359375 25.945312 30.339844 26.09375 C 30.328125 26.199219 30.339844 26.304688 30.339844 26.410156 C 30.339844 31.484375 34.402344 35.597656 39.464844 35.597656 C 40.101562 35.597656 40.726562 35.53125 41.328125 35.40625 C 41.878906 35.300781 42.398438 35.128906 42.90625 34.929688 C 43.648438 34.632812 44.335938 34.25 44.960938 33.773438 C 47.195312 32.101562 48.644531 29.429688 48.644531 26.410156 L 48.644531 15.453125 L 43.953125 18.402344 "/>
<path style=" stroke:none;fill-rule:nonzero;fill:rgb(0%,0%,0%);fill-opacity:1;" d="M 40.089844 27.207031 C 40.578125 27.207031 40.832031 27.789062 40.503906 28.148438 C 40.25 28.425781 39.890625 28.59375 39.496094 28.59375 C 39.09375 28.59375 38.734375 28.425781 38.480469 28.148438 C 38.152344 27.789062 38.40625 27.207031 38.894531 27.207031 L 40.089844 27.207031 "/>
<path style=" stroke:none;fill-rule:nonzero;fill:rgb(0%,0%,0%);fill-opacity:1;" d="M 30.335938 23.433594 C 30.335938 23.453125 30.335938 23.476562 30.335938 23.496094 C 30.335938 23.667969 30.328125 23.824219 30.296875 23.972656 C 30.085938 25.425781 29.023438 26.613281 27.636719 26.992188 C 27.574219 27.003906 27.519531 27.023438 27.457031 27.035156 C 27.394531 27.046875 27.328125 27.058594 27.265625 27.078125 C 27.226562 27.078125 27.195312 27.078125 27.160156 27.089844 C 27.121094 27.101562 27.078125 27.101562 27.046875 27.109375 C 26.96875 27.109375 26.90625 27.109375 26.84375 27.121094 C 26.78125 27.121094 26.714844 27.121094 26.652344 27.121094 C 26.324219 27.121094 25.996094 27.078125 25.691406 26.992188 C 25.582031 26.972656 25.488281 26.941406 25.382812 26.898438 C 25.160156 26.8125 24.949219 26.71875 24.746094 26.589844 C 24.640625 26.527344 24.546875 26.464844 24.449219 26.390625 C 24.355469 26.324219 24.261719 26.25 24.175781 26.167969 C 23.433594 25.488281 22.96875 24.515625 22.96875 23.433594 L 22.96875 7.382812 L 23.011719 7.382812 C 23.371094 7.382812 23.730469 7.402344 24.082031 7.464844 C 27.511719 8.292969 30.09375 11.269531 30.335938 14.894531 L 30.335938 23.433594 "/>
<path style=" stroke:none;fill-rule:nonzero;fill:rgb(0%,0%,0%);fill-opacity:1;" d="M 30.335938 14.714844 L 30.335938 14.894531 C 30.09375 11.269531 27.511719 8.292969 24.082031 7.464844 C 27.617188 7.976562 30.335938 11.027344 30.335938 14.714844 "/>
<path style=" stroke:none;fill-rule:nonzero;fill:rgb(0%,0%,0%);fill-opacity:1;" d="M 16.480469 16.4375 C 16.9375 16.4375 17.3125 16.808594 17.3125 17.269531 C 17.3125 17.726562 16.9375 18.09375 16.480469 18.09375 C 16.027344 18.09375 15.652344 17.726562 15.652344 17.269531 C 15.652344 16.808594 16.027344 16.4375 16.480469 16.4375 "/>
<path style=" stroke:none;fill-rule:nonzero;fill:rgb(0%,0%,0%);fill-opacity:1;" d="M 19.65625 16.4375 C 20.117188 16.4375 20.492188 16.808594 20.492188 17.269531 C 20.492188 17.726562 20.117188 18.09375 19.65625 18.09375 C 19.203125 18.09375 18.828125 17.726562 18.828125 17.269531 C 18.828125 16.808594 19.203125 16.4375 19.65625 16.4375 "/>
<path style=" stroke:none;fill-rule:nonzero;fill:rgb(0%,0%,0%);fill-opacity:1;" d="M 10.273438 22.449219 C 10.273438 22.574219 10.273438 22.703125 10.242188 22.820312 C 10.242188 22.859375 10.230469 22.902344 10.21875 22.945312 C 10.199219 23.042969 10.167969 23.125 10.125 23.222656 C 10.105469 23.285156 10.074219 23.347656 10.03125 23.410156 C 10.007812 23.453125 10 23.484375 9.964844 23.519531 C 9.945312 23.539062 9.933594 23.570312 9.914062 23.59375 C 9.859375 23.667969 9.808594 23.742188 9.742188 23.792969 C 9.65625 23.878906 9.585938 23.941406 9.488281 24.003906 C 9.425781 24.058594 9.351562 24.101562 9.277344 24.132812 C 9.246094 24.152344 9.203125 24.175781 9.160156 24.183594 C 9.117188 24.207031 9.066406 24.226562 9.023438 24.238281 C 8.980469 24.257812 8.9375 24.269531 8.894531 24.28125 C 8.875 24.28125 8.855469 24.28125 8.832031 24.292969 C 8.820312 24.292969 8.820312 24.292969 8.8125 24.292969 C 8.769531 24.300781 8.726562 24.3125 8.683594 24.3125 C 8.675781 24.324219 8.652344 24.324219 8.632812 24.324219 C 8.578125 24.332031 8.515625 24.332031 8.453125 24.332031 L 4.703125 24.332031 C 4.703125 23.328125 5.117188 22.40625 5.773438 21.738281 C 6.441406 21.082031 7.351562 20.667969 8.367188 20.667969 C 9.117188 20.667969 9.808594 21.101562 10.105469 21.75 C 10.15625 21.855469 10.199219 21.960938 10.230469 22.085938 C 10.25 22.203125 10.273438 22.320312 10.273438 22.449219 "/>
<path style=" stroke:none;fill-rule:nonzero;fill:rgb(86.27451%,23.529412%,30.196078%);fill-opacity:1;" d="M 8.832031 11.300781 L 8.832031 11.394531 C 8.832031 13.6875 4.703125 16.121094 4.703125 16.121094 C 4.703125 16.121094 0.574219 13.6875 0.574219 11.394531 L 0.574219 11.300781 C 0.574219 10.183594 1.484375 9.257812 2.597656 9.242188 C 2.617188 9.242188 2.628906 9.242188 2.648438 9.242188 C 3.792969 9.273438 4.703125 10.214844 4.703125 11.378906 C 4.703125 10.214844 5.628906 9.273438 6.777344 9.242188 C 6.789062 9.242188 6.789062 9.242188 6.808594 9.242188 C 7.9375 9.257812 8.832031 10.183594 8.832031 11.300781 "/>
<path style=" stroke:none;fill-rule:nonzero;fill:rgb(0%,0%,0%);fill-opacity:1;" d="M 8.8125 24.292969 C 8.820312 24.292969 8.820312 24.292969 8.832031 24.292969 C 8.78125 24.300781 8.738281 24.3125 8.683594 24.3125 C 8.726562 24.3125 8.769531 24.300781 8.8125 24.292969 "/>
<g clip-path="url(#clip1)" clip-rule="nonzero">
<path style=" stroke:none;fill-rule:nonzero;fill:rgb(0%,0%,0%);fill-opacity:1;" d="M 26.671875 43.546875 C 19.144531 43.546875 12.289062 39.09375 9.214844 32.199219 C 9.035156 31.800781 9.214844 31.335938 9.613281 31.15625 C 10.007812 30.980469 10.476562 31.15625 10.652344 31.554688 C 13.476562 37.882812 19.761719 41.96875 26.671875 41.96875 C 32.242188 41.96875 37.355469 39.40625 40.695312 34.933594 C 40.957031 34.585938 41.453125 34.511719 41.800781 34.773438 C 42.148438 35.035156 42.21875 35.53125 41.960938 35.878906 C 38.367188 40.679688 32.65625 43.546875 26.671875 43.546875 "/>
</g>
<g clip-path="url(#clip2)" clip-rule="nonzero">
<path style=" stroke:none;fill-rule:nonzero;fill:rgb(0%,0%,0%);fill-opacity:1;" d="M 39.464844 36.386719 C 33.996094 36.386719 29.550781 31.910156 29.550781 26.410156 L 29.546875 26.328125 C 29.542969 26.226562 29.542969 26.121094 29.554688 26.015625 C 29.554688 26.003906 29.554688 25.992188 29.558594 25.980469 C 29.558594 25.953125 29.558594 25.878906 29.554688 25.820312 C 29.550781 25.753906 29.550781 25.6875 29.550781 25.617188 L 29.550781 23.496094 C 29.550781 23.0625 29.902344 22.707031 30.335938 22.707031 C 30.773438 22.707031 31.125 23.0625 31.125 23.496094 L 31.125 25.617188 C 31.125 25.664062 31.128906 25.707031 31.132812 25.75 C 31.136719 25.871094 31.140625 26.019531 31.121094 26.179688 C 31.117188 26.214844 31.121094 26.246094 31.121094 26.277344 C 31.125 26.324219 31.125 26.367188 31.125 26.410156 C 31.125 31.039062 34.867188 34.808594 39.464844 34.808594 C 40.046875 34.808594 40.617188 34.75 41.164062 34.632812 C 41.625 34.542969 42.082031 34.40625 42.617188 34.195312 C 43.300781 33.921875 43.929688 33.566406 44.480469 33.148438 C 46.628906 31.539062 47.855469 29.085938 47.855469 26.410156 L 47.855469 16.882812 L 42.964844 19.949219 C 42.839844 20.027344 42.695312 20.070312 42.546875 20.070312 L 36.4375 20.070312 C 36.289062 20.070312 36.140625 20.027344 36.015625 19.945312 L 34.59375 19.046875 L 29.921875 16.125 C 29.550781 15.894531 29.4375 15.40625 29.667969 15.039062 C 29.898438 14.667969 30.386719 14.554688 30.753906 14.785156 L 36.664062 18.492188 L 42.320312 18.492188 L 48.226562 14.789062 C 48.46875 14.632812 48.773438 14.625 49.027344 14.765625 C 49.277344 14.902344 49.433594 15.167969 49.433594 15.453125 L 49.433594 26.410156 C 49.433594 29.585938 47.976562 32.5 45.433594 34.40625 C 44.773438 34.910156 44.019531 35.332031 43.199219 35.664062 C 42.570312 35.910156 42.023438 36.074219 41.476562 36.179688 C 40.835938 36.316406 40.15625 36.386719 39.464844 36.386719 "/>
</g>
<path style=" stroke:none;fill-rule:nonzero;fill:rgb(0%,0%,0%);fill-opacity:1;" d="M 23.757812 8.214844 L 23.757812 23.433594 C 23.757812 24.25 24.105469 25.03125 24.707031 25.585938 C 24.773438 25.648438 24.824219 25.691406 24.886719 25.734375 C 24.90625 25.742188 24.917969 25.753906 24.933594 25.765625 C 25.003906 25.820312 25.074219 25.867188 25.152344 25.914062 C 25.300781 26.007812 25.453125 26.082031 25.664062 26.160156 C 25.746094 26.195312 25.796875 26.210938 25.84375 26.21875 C 25.863281 26.222656 25.882812 26.226562 25.898438 26.230469 C 26.132812 26.296875 26.394531 26.332031 26.652344 26.332031 L 26.792969 26.332031 C 26.855469 26.324219 26.914062 26.320312 26.964844 26.320312 C 26.976562 26.320312 26.980469 26.320312 26.988281 26.316406 C 27.046875 26.304688 27.101562 26.296875 27.144531 26.292969 C 27.214844 26.277344 27.273438 26.265625 27.324219 26.257812 C 27.375 26.246094 27.414062 26.234375 27.457031 26.226562 C 28.542969 25.914062 29.351562 24.988281 29.515625 23.859375 C 29.515625 23.84375 29.519531 23.824219 29.523438 23.808594 C 29.539062 23.730469 29.550781 23.628906 29.550781 23.496094 L 29.550781 14.714844 C 29.550781 11.484375 27.148438 8.707031 23.96875 8.25 C 23.957031 8.246094 23.949219 8.246094 23.9375 8.242188 C 23.878906 8.230469 23.820312 8.222656 23.757812 8.214844 Z M 27.636719 26.992188 L 27.640625 26.992188 Z M 27.410156 27.835938 Z M 27.292969 27.859375 Z M 27.292969 27.859375 C 27.277344 27.863281 27.261719 27.871094 27.246094 27.875 C 27.261719 27.871094 27.277344 27.863281 27.292969 27.859375 Z M 26.84375 27.910156 L 26.652344 27.910156 C 26.257812 27.910156 25.871094 27.859375 25.503906 27.761719 C 25.371094 27.734375 25.242188 27.691406 25.089844 27.632812 C 24.796875 27.519531 24.550781 27.398438 24.328125 27.257812 C 24.207031 27.1875 24.097656 27.113281 23.988281 27.03125 C 23.851562 26.9375 23.726562 26.835938 23.617188 26.726562 C 22.710938 25.898438 22.179688 24.691406 22.179688 23.433594 L 22.179688 7.382812 C 22.179688 6.945312 22.53125 6.59375 22.96875 6.59375 L 23.011719 6.59375 C 23.457031 6.59375 23.847656 6.625 24.207031 6.6875 C 28.152344 7.261719 31.125 10.710938 31.125 14.714844 L 31.125 23.496094 C 31.125 23.734375 31.109375 23.929688 31.070312 24.113281 C 30.808594 25.859375 29.542969 27.289062 27.847656 27.753906 C 27.820312 27.761719 27.792969 27.765625 27.769531 27.773438 C 27.703125 27.789062 27.644531 27.804688 27.585938 27.8125 C 27.5625 27.816406 27.539062 27.820312 27.515625 27.828125 C 27.441406 27.851562 27.371094 27.863281 27.296875 27.867188 C 27.269531 27.871094 27.246094 27.875 27.21875 27.878906 C 27.148438 27.894531 27.070312 27.898438 27.003906 27.898438 C 26.988281 27.898438 26.976562 27.898438 26.964844 27.898438 C 26.921875 27.90625 26.886719 27.910156 26.84375 27.910156 "/>
<path style=" stroke:none;fill-rule:nonzero;fill:rgb(0%,0%,0%);fill-opacity:1;" d="M 4.703125 25.121094 C 4.269531 25.121094 3.914062 24.769531 3.914062 24.332031 C 3.914062 23.152344 4.375 22.035156 5.210938 21.183594 C 6.070312 20.339844 7.1875 19.878906 8.367188 19.878906 C 9.429688 19.878906 10.390625 20.484375 10.820312 21.417969 C 10.894531 21.566406 10.953125 21.726562 10.996094 21.898438 C 11 21.914062 11.003906 21.929688 11.007812 21.945312 C 11.03125 22.074219 11.0625 22.246094 11.0625 22.449219 C 11.0625 22.609375 11.0625 22.808594 11.003906 23.027344 C 10.886719 23.445312 10.453125 23.695312 10.035156 23.582031 C 9.613281 23.464844 9.367188 23.03125 9.480469 22.613281 C 9.484375 22.589844 9.484375 22.507812 9.484375 22.449219 C 9.484375 22.398438 9.472656 22.332031 9.460938 22.257812 C 9.445312 22.207031 9.425781 22.160156 9.398438 22.101562 C 9.214844 21.707031 8.804688 21.457031 8.367188 21.457031 C 7.601562 21.457031 6.878906 21.757812 6.324219 22.300781 C 5.789062 22.84375 5.492188 23.570312 5.492188 24.332031 C 5.492188 24.769531 5.136719 25.121094 4.703125 25.121094 "/>
<path style=" stroke:none;fill-rule:nonzero;fill:rgb(0%,0%,0%);fill-opacity:1;" d="M 8.683594 25.101562 C 8.25 25.101562 7.894531 24.75 7.894531 24.3125 C 7.894531 23.890625 8.226562 23.546875 8.644531 23.523438 C 8.660156 23.523438 8.679688 23.519531 8.679688 23.519531 C 9.109375 23.433594 9.523438 23.710938 9.605469 24.136719 C 9.691406 24.566406 9.414062 24.980469 8.984375 25.066406 L 8.832031 24.292969 L 8.96875 25.070312 C 8.902344 25.082031 8.808594 25.101562 8.683594 25.101562 "/>
<path style=" stroke:none;fill-rule:nonzero;fill:rgb(0%,0%,0%);fill-opacity:1;" d="M 8.671875 23.53125 Z M 8.898438 25.070312 C 8.546875 25.070312 8.222656 24.832031 8.132812 24.472656 C 8.027344 24.050781 8.28125 23.621094 8.703125 23.515625 C 8.707031 23.515625 8.695312 23.519531 8.683594 23.527344 C 9.066406 23.339844 9.535156 23.5 9.726562 23.886719 C 9.921875 24.277344 9.765625 24.75 9.375 24.945312 C 9.257812 25.003906 9.152344 25.03125 9.089844 25.046875 C 9.027344 25.0625 8.960938 25.070312 8.898438 25.070312 "/>
<path style=" stroke:none;fill-rule:nonzero;fill:rgb(0%,0%,0%);fill-opacity:1;" d="M 9.488281 24.796875 C 9.234375 24.796875 8.984375 24.671875 8.832031 24.441406 C 8.59375 24.082031 8.691406 23.589844 9.054688 23.347656 C 9.097656 23.316406 9.132812 23.289062 9.1875 23.234375 C 9.203125 23.21875 9.21875 23.203125 9.238281 23.1875 C 9.234375 23.1875 9.25 23.160156 9.269531 23.136719 L 10.550781 24.054688 C 10.488281 24.144531 10.402344 24.261719 10.28125 24.371094 C 10.160156 24.488281 10.050781 24.578125 9.925781 24.660156 C 9.792969 24.75 9.640625 24.796875 9.488281 24.796875 "/>
<path style=" stroke:none;fill-rule:nonzero;fill:rgb(0%,0%,0%);fill-opacity:1;" d="M 10.027344 24.203125 C 9.878906 24.203125 9.726562 24.15625 9.59375 24.070312 C 9.230469 23.828125 9.132812 23.335938 9.375 22.972656 C 9.382812 22.949219 9.390625 22.925781 9.402344 22.902344 C 9.429688 22.84375 9.441406 22.808594 9.449219 22.777344 C 9.542969 22.351562 9.964844 22.082031 10.390625 22.175781 C 10.816406 22.269531 11.082031 22.691406 10.988281 23.117188 C 10.953125 23.277344 10.902344 23.410156 10.859375 23.511719 C 10.816406 23.625 10.757812 23.742188 10.6875 23.847656 C 10.53125 24.078125 10.285156 24.203125 10.027344 24.203125 "/>
<g clip-path="url(#clip3)" clip-rule="nonzero">
<path style=" stroke:none;fill-rule:nonzero;fill:rgb(0%,0%,0%);fill-opacity:1;" d="M 11.0625 22.382812 Z M 9.535156 22.464844 Z M 9.5 22.492188 C 9.5 22.492188 9.5 22.496094 9.5 22.496094 C 9.5 22.496094 9.5 22.492188 9.5 22.492188 Z M 9.484375 22.648438 Z M 9.484375 22.648438 Z M 9.476562 22.671875 C 9.476562 22.691406 9.472656 22.710938 9.472656 22.734375 C 9.472656 22.714844 9.476562 22.695312 9.476562 22.671875 Z M 9.453125 22.820312 Z M 9.40625 22.964844 C 9.402344 22.96875 9.398438 22.972656 9.390625 22.976562 C 9.398438 22.972656 9.402344 22.96875 9.40625 22.964844 Z M 9.355469 23.03125 Z M 9.335938 23.21875 Z M 9.335938 23.21875 C 9.335938 23.21875 9.335938 23.222656 9.335938 23.222656 C 9.335938 23.222656 9.335938 23.21875 9.335938 23.21875 Z M 8.96875 23.472656 Z M 8.839844 23.476562 Z M 8.484375 23.546875 C 8.480469 23.550781 8.480469 23.550781 8.476562 23.550781 C 8.480469 23.550781 8.480469 23.550781 8.484375 23.546875 Z M 8.199219 23.691406 C 8.171875 23.710938 8.148438 23.734375 8.125 23.757812 C 8.148438 23.734375 8.171875 23.710938 8.199219 23.691406 Z M 8.125 23.757812 Z M 8.125 23.757812 C 8.121094 23.757812 8.121094 23.757812 8.121094 23.757812 C 8.121094 23.757812 8.121094 23.757812 8.125 23.757812 Z M 9.183594 24.996094 Z M 23.015625 43.171875 C 22.582031 43.171875 22.226562 42.816406 22.226562 42.382812 C 22.226562 37.828125 20.339844 32.953125 17.53125 32.953125 L 12.03125 32.953125 C 11.21875 32.953125 10.449219 32.839844 9.710938 32.625 C 6.296875 31.621094 3.914062 28.433594 3.914062 24.875 L 3.914062 24.332031 C 3.914062 23.898438 4.269531 23.546875 4.703125 23.546875 L 8.453125 23.546875 C 8.46875 23.546875 8.488281 23.546875 8.503906 23.546875 C 8.542969 23.535156 8.582031 23.53125 8.621094 23.527344 C 8.636719 23.523438 8.652344 23.519531 8.671875 23.515625 C 8.6875 23.511719 8.699219 23.511719 8.710938 23.507812 C 8.730469 23.503906 8.746094 23.5 8.765625 23.496094 C 8.789062 23.484375 8.8125 23.480469 8.832031 23.472656 C 8.851562 23.460938 8.867188 23.453125 8.886719 23.449219 C 8.914062 23.433594 8.941406 23.421875 8.96875 23.40625 C 8.988281 23.390625 9.03125 23.363281 9.054688 23.347656 C 9.09375 23.324219 9.136719 23.285156 9.1875 23.234375 C 9.21875 23.203125 9.242188 23.171875 9.273438 23.132812 C 9.273438 23.128906 9.277344 23.125 9.28125 23.121094 C 9.292969 23.101562 9.308594 23.078125 9.328125 23.054688 C 9.339844 23.023438 9.359375 22.996094 9.378906 22.96875 C 9.390625 22.933594 9.402344 22.898438 9.421875 22.867188 L 9.445312 22.8125 C 9.449219 22.785156 9.449219 22.78125 9.457031 22.753906 C 9.460938 22.699219 9.46875 22.644531 9.484375 22.59375 C 9.484375 22.589844 9.484375 22.585938 9.488281 22.582031 C 9.488281 22.5625 9.492188 22.542969 9.496094 22.523438 C 9.488281 22.472656 9.484375 22.425781 9.484375 22.382812 C 9.484375 22.347656 9.480469 22.332031 9.480469 22.328125 C 9.46875 22.300781 9.460938 22.269531 9.457031 22.238281 C 9.453125 22.234375 9.453125 22.226562 9.453125 22.21875 C 9.445312 22.207031 9.4375 22.1875 9.433594 22.167969 C 9.429688 22.160156 9.425781 22.15625 9.421875 22.148438 C 9.40625 22.117188 9.394531 22.09375 9.378906 22.0625 C 9.222656 21.699219 8.847656 21.457031 8.453125 21.457031 C 8.015625 21.457031 7.664062 21.105469 7.664062 20.667969 C 7.664062 20.234375 8.015625 19.878906 8.453125 19.878906 L 10.273438 19.878906 C 11.859375 19.878906 13.148438 18.589844 13.148438 17.003906 L 13.15625 15.449219 C 13.15625 10.492188 17.199219 6.457031 22.164062 6.457031 C 22.886719 6.457031 23.59375 6.539062 24.265625 6.699219 C 28.101562 7.625 30.859375 10.894531 31.125 14.839844 C 31.136719 15.042969 31.148438 15.25 31.148438 15.453125 C 31.148438 15.890625 30.792969 16.246094 30.359375 16.246094 C 29.921875 16.246094 29.570312 15.890625 29.570312 15.453125 C 29.570312 15.28125 29.558594 15.105469 29.550781 14.941406 C 29.332031 11.695312 27.058594 8.996094 23.894531 8.234375 C 23.335938 8.097656 22.769531 8.035156 22.164062 8.035156 C 18.066406 8.035156 14.734375 11.363281 14.734375 15.453125 L 14.726562 17.007812 C 14.726562 19.273438 13.019531 21.152344 10.824219 21.421875 C 10.855469 21.484375 10.882812 21.546875 10.90625 21.609375 C 10.921875 21.640625 10.933594 21.679688 10.941406 21.714844 C 10.957031 21.746094 10.972656 21.792969 10.984375 21.84375 C 10.988281 21.851562 10.988281 21.863281 10.992188 21.875 C 10.992188 21.886719 10.996094 21.894531 11 21.910156 C 11.039062 22.042969 11.058594 22.1875 11.0625 22.34375 C 11.066406 22.398438 11.074219 22.449219 11.074219 22.492188 C 11.074219 22.554688 11.074219 22.640625 11.054688 22.746094 C 11.054688 22.769531 11.050781 22.789062 11.046875 22.8125 C 11.042969 22.875 11.03125 22.933594 11.015625 22.988281 C 11.007812 23.03125 11 23.070312 10.992188 23.101562 C 10.96875 23.246094 10.925781 23.378906 10.867188 23.5 C 10.847656 23.558594 10.824219 23.601562 10.8125 23.628906 C 10.789062 23.679688 10.757812 23.742188 10.714844 23.808594 C 10.6875 23.859375 10.648438 23.929688 10.589844 24.003906 C 10.574219 24.027344 10.554688 24.050781 10.53125 24.082031 C 10.457031 24.179688 10.382812 24.269531 10.300781 24.351562 C 10.1875 24.464844 10.074219 24.558594 9.960938 24.640625 C 9.863281 24.714844 9.761719 24.777344 9.644531 24.832031 C 9.589844 24.863281 9.523438 24.894531 9.449219 24.921875 C 9.40625 24.941406 9.359375 24.960938 9.304688 24.976562 C 9.261719 24.996094 9.207031 25.019531 9.136719 25.03125 C 9.09375 25.046875 9.046875 25.058594 9 25.0625 C 8.972656 25.066406 8.949219 25.070312 8.925781 25.074219 C 8.898438 25.082031 8.867188 25.085938 8.835938 25.089844 C 8.796875 25.097656 8.757812 25.105469 8.714844 25.109375 C 8.613281 25.121094 8.523438 25.121094 8.453125 25.121094 L 5.496094 25.121094 C 5.605469 27.886719 7.488281 30.328125 10.15625 31.109375 C 10.75 31.285156 11.371094 31.375 12 31.375 L 17.53125 31.375 C 21.457031 31.375 23.804688 36.972656 23.804688 42.382812 C 23.804688 42.816406 23.453125 43.171875 23.015625 43.171875 "/>
</g>
<path style=" stroke:none;fill-rule:nonzero;fill:rgb(0%,0%,0%);fill-opacity:1;" d="M 35.753906 25.621094 C 36.214844 25.621094 36.589844 25.988281 36.589844 26.449219 C 36.589844 26.910156 36.214844 27.277344 35.753906 27.277344 C 35.300781 27.277344 34.929688 26.910156 34.929688 26.449219 C 34.929688 25.988281 35.300781 25.621094 35.753906 25.621094 "/>
<path style=" stroke:none;fill-rule:nonzero;fill:rgb(0%,0%,0%);fill-opacity:1;" d="M 43.21875 25.621094 C 43.679688 25.621094 44.054688 25.988281 44.054688 26.449219 C 44.054688 26.910156 43.679688 27.277344 43.21875 27.277344 C 42.769531 27.277344 42.394531 26.910156 42.394531 26.449219 C 42.394531 25.988281 42.769531 25.621094 43.21875 25.621094 "/>
</g>
</svg>
