<svg xmlns="http://www.w3.org/2000/svg" xmlns:xlink="http://www.w3.org/1999/xlink" width="1024" zoomAndPan="magnify" viewBox="0 0 768 767.999994" height="1024" preserveAspectRatio="xMidYMid meet" version="1.0"><defs><clipPath id="496cd361e2"><path d="M 140 477 L 647 477 L 647 668.890625 L 140 668.890625 Z M 140 477 " clip-rule="nonzero"/></clipPath><clipPath id="4a6bae0268"><path d="M 453 225 L 759.3125 225 L 759.3125 559 L 453 559 Z M 453 225 " clip-rule="nonzero"/></clipPath><clipPath id="2c81288afb"><path d="M 60 99.160156 L 479 99.160156 L 479 664 L 60 664 Z M 60 99.160156 " clip-rule="nonzero"/></clipPath></defs><path fill="#f8dd00" d="M 606.191406 546.757812 C 528.445312 546.757812 466 483.621094 466 405.679688 C 466 404.03125 465.832031 402.421875 466 400.792969 C 466.320312 398.511719 466 396.058594 466 393.457031 C 466 393.140625 466 392.824219 466 392.484375 L 466 360.914062 C 466 363.515625 465.832031 365.96875 465.347656 368.230469 C 462.09375 390.539062 445.820312 408.765625 424.519531 414.625 C 423.527344 414.792969 422.722656 415.109375 421.75 415.277344 C 420.78125 415.425781 419.785156 415.597656 418.816406 415.914062 C 418.160156 415.914062 417.695312 415.914062 417.1875 416.082031 C 416.554688 416.25 415.898438 416.25 415.414062 416.398438 C 414.269531 416.398438 413.300781 416.398438 412.328125 416.570312 C 411.332031 416.570312 410.363281 416.570312 409.390625 416.570312 C 404.339844 416.570312 399.308594 415.914062 394.578125 414.625 C 392.96875 414.285156 391.492188 413.796875 389.886719 413.164062 C 386.460938 411.851562 383.207031 410.394531 380.121094 408.429688 C 378.496094 407.457031 377.035156 406.484375 375.558594 405.339844 C 374.101562 404.367188 372.640625 403.226562 371.332031 401.9375 C 359.941406 391.511719 352.800781 376.542969 352.800781 359.941406 L 352.800781 113.390625 L 353.433594 113.390625 C 358.96875 113.390625 364.507812 113.710938 369.875 114.703125 C 360.425781 112.417969 350.6875 111.277344 340.4375 111.277344 C 270.828125 111.277344 214.214844 167.734375 214.214844 237.386719 L 214.070312 261.152344 C 214.070312 292.234375 188.859375 317.460938 157.792969 317.460938 L 129.816406 317.460938 C 141.039062 317.460938 150.96875 324.292969 155.195312 334.0625 C 155.679688 334.863281 156 335.6875 156.335938 336.515625 C 156.484375 337.148438 156.824219 337.804688 156.96875 338.460938 C 156.96875 338.777344 157.140625 338.945312 157.140625 339.261719 C 157.625 340.742188 157.792969 342.371094 157.792969 343.828125 C 157.792969 344.316406 157.941406 344.972656 157.941406 345.457031 C 157.941406 346.261719 157.941406 347.085938 157.792969 347.890625 C 157.792969 348.375 157.625 348.882812 157.625 349.199219 C 157.625 349.6875 157.457031 350.171875 157.308594 350.492188 C 157.308594 351.144531 157.140625 351.800781 156.96875 352.457031 C 156.824219 353.597656 156.484375 354.742188 156 355.714844 C 155.828125 356.03125 155.679688 356.367188 155.511719 356.6875 C 155.511719 357.003906 155.34375 357.339844 155.195312 357.660156 C 154.859375 358.3125 154.539062 358.96875 154.054688 359.605469 C 153.714844 360.257812 153.570312 360.746094 153.082031 361.230469 C 152.746094 361.570312 152.597656 362.058594 152.257812 362.375 C 151.457031 363.515625 150.632812 364.488281 149.660156 365.480469 C 148.519531 366.601562 147.230469 367.746094 145.75 368.71875 C 144.777344 369.542969 143.636719 370.199219 142.496094 370.683594 C 142.007812 371 141.355469 371.339844 140.71875 371.488281 C 140.066406 371.824219 139.242188 372.144531 138.585938 372.3125 C 138.269531 372.460938 137.953125 372.628906 137.78125 372.628906 C 137.296875 372.628906 136.980469 372.796875 136.640625 372.96875 C 136.324219 372.96875 136.007812 372.96875 135.667969 373.117188 C 134.867188 373.285156 134.210938 373.453125 133.410156 373.453125 C 133.238281 373.601562 132.902344 373.601562 132.585938 373.601562 C 131.761719 373.769531 130.789062 373.769531 129.816406 373.769531 L 72.230469 373.769531 L 72.230469 382.082031 C 72.230469 432.851562 106.0625 475.816406 152.597656 489.476562 L 152.597656 489.644531 C 196.507812 588.097656 295.066406 656.773438 409.707031 656.773438 C 501.757812 656.773438 583.578125 612.347656 634.800781 543.839844 C 625.527344 545.785156 615.953125 546.757812 606.191406 546.757812 " fill-opacity="1" fill-rule="nonzero"/><path fill="#f8dd00" d="M 675.144531 282.636719 L 653.503906 296.148438 L 559.65625 296.148438 L 537.871094 282.320312 L 466 237.386719 L 466 359.941406 C 466 360.257812 466 360.597656 466 360.914062 L 466 392.484375 C 466 392.824219 466 393.140625 466 393.457031 C 466 396.058594 466.320312 398.511719 466 400.792969 C 465.832031 402.421875 466 404.03125 466 405.679688 C 466 483.621094 528.445312 546.757812 606.191406 546.757812 C 615.953125 546.757812 625.546875 545.785156 634.800781 543.839844 C 643.253906 542.210938 651.242188 539.609375 659.039062 536.503906 C 670.429688 531.957031 680.996094 526.097656 690.589844 518.761719 C 724.910156 493.050781 747.179688 452.050781 747.179688 405.679688 L 747.179688 237.386719 L 675.144531 282.636719 " fill-opacity="1" fill-rule="nonzero"/><path fill="#000000" d="M 615.785156 417.878906 C 623.265625 417.878906 627.175781 426.824219 622.125 432.363281 C 618.214844 436.59375 612.699219 439.195312 606.675781 439.195312 C 600.484375 439.195312 594.96875 436.59375 591.058594 432.363281 C 586.007812 426.824219 589.917969 417.878906 597.398438 417.878906 L 615.785156 417.878906 " fill-opacity="1" fill-rule="nonzero"/><path fill="#000000" d="M 465.980469 359.941406 C 465.980469 360.257812 465.980469 360.597656 465.980469 360.914062 C 465.980469 363.515625 465.832031 365.96875 465.347656 368.230469 C 462.09375 390.539062 445.820312 408.765625 424.519531 414.625 C 423.527344 414.792969 422.722656 415.109375 421.75 415.277344 C 420.78125 415.425781 419.785156 415.597656 418.816406 415.914062 C 418.179688 415.914062 417.695312 415.914062 417.1875 416.082031 C 416.554688 416.25 415.898438 416.25 415.414062 416.398438 C 414.269531 416.398438 413.300781 416.398438 412.328125 416.570312 C 411.332031 416.570312 410.363281 416.570312 409.390625 416.570312 C 404.339844 416.570312 399.308594 415.914062 394.597656 414.625 C 392.96875 414.285156 391.492188 413.796875 389.886719 413.164062 C 386.460938 411.851562 383.207031 410.394531 380.121094 408.429688 C 378.496094 407.457031 377.035156 406.484375 375.558594 405.339844 C 374.101562 404.367188 372.640625 403.226562 371.332031 401.9375 C 359.941406 391.511719 352.800781 376.542969 352.800781 359.941406 L 352.800781 113.390625 L 353.453125 113.390625 C 358.96875 113.390625 364.507812 113.710938 369.875 114.683594 C 422.554688 127.390625 462.242188 173.105469 465.980469 228.78125 L 465.980469 359.941406 " fill-opacity="1" fill-rule="nonzero"/><path fill="#000000" d="M 465.980469 226.011719 L 465.980469 228.78125 C 462.242188 173.105469 422.554688 127.390625 369.875 114.683594 C 424.183594 122.507812 465.980469 169.363281 465.980469 226.011719 " fill-opacity="1" fill-rule="nonzero"/><path fill="#000000" d="M 253.121094 252.503906 C 260.179688 252.503906 265.945312 258.152344 265.945312 265.234375 C 265.945312 272.296875 260.179688 277.941406 253.121094 277.941406 C 246.167969 277.941406 240.398438 272.296875 240.398438 265.234375 C 240.398438 258.152344 246.167969 252.503906 253.121094 252.503906 " fill-opacity="1" fill-rule="nonzero"/><path fill="#000000" d="M 301.914062 252.503906 C 308.972656 252.503906 314.742188 258.152344 314.742188 265.234375 C 314.742188 272.296875 308.972656 277.941406 301.914062 277.941406 C 294.960938 277.941406 289.214844 272.296875 289.214844 265.234375 C 289.214844 258.152344 294.960938 252.503906 301.914062 252.503906 " fill-opacity="1" fill-rule="nonzero"/><path fill="#000000" d="M 157.792969 344.800781 C 157.792969 346.746094 157.792969 348.714844 157.308594 350.492188 C 157.308594 351.144531 157.140625 351.800781 156.96875 352.457031 C 156.652344 353.917969 156.167969 355.226562 155.511719 356.6875 C 155.195312 357.660156 154.710938 358.632812 154.054688 359.605469 C 153.714844 360.257812 153.570312 360.746094 153.082031 361.230469 C 152.746094 361.570312 152.597656 362.058594 152.257812 362.375 C 151.457031 363.515625 150.632812 364.65625 149.660156 365.480469 C 148.347656 366.773438 147.230469 367.746094 145.75 368.71875 C 144.777344 369.542969 143.636719 370.199219 142.496094 370.683594 C 142.007812 371 141.375 371.339844 140.71875 371.488281 C 140.066406 371.824219 139.242188 372.144531 138.605469 372.3125 C 137.953125 372.628906 137.296875 372.796875 136.640625 372.96875 C 136.324219 372.96875 136.007812 372.96875 135.667969 373.117188 C 135.5 373.117188 135.5 373.117188 135.351562 373.117188 C 134.699219 373.285156 134.042969 373.453125 133.386719 373.453125 C 133.238281 373.601562 132.902344 373.601562 132.585938 373.601562 C 131.761719 373.769531 130.789062 373.769531 129.816406 373.769531 L 72.230469 373.769531 C 72.230469 358.3125 78.59375 344.148438 88.671875 333.890625 C 98.921875 323.804688 112.910156 317.460938 128.527344 317.460938 C 140.066406 317.460938 150.632812 324.144531 155.195312 334.0625 C 156 335.6875 156.652344 337.316406 157.140625 339.261719 C 157.457031 341.058594 157.792969 342.855469 157.792969 344.800781 " fill-opacity="1" fill-rule="nonzero"/><path fill="#dc3c4d" d="M 135.667969 173.570312 L 135.667969 175.007812 C 135.667969 210.234375 72.230469 247.640625 72.230469 247.640625 C 72.230469 247.640625 8.816406 210.234375 8.816406 175.007812 L 8.816406 173.570312 C 8.816406 156.421875 22.804688 142.191406 39.921875 141.960938 C 40.175781 141.960938 40.40625 141.960938 40.660156 141.960938 C 58.265625 142.425781 72.230469 156.910156 72.230469 174.777344 C 72.230469 156.910156 86.476562 142.425781 104.078125 141.960938 C 104.308594 141.960938 104.308594 141.960938 104.5625 141.960938 C 121.933594 142.191406 135.667969 156.421875 135.667969 173.570312 " fill-opacity="1" fill-rule="nonzero"/><path fill="#000000" d="M 135.351562 373.117188 C 135.5 373.117188 135.5 373.117188 135.667969 373.117188 C 134.867188 373.285156 134.210938 373.453125 133.386719 373.453125 C 134.042969 373.453125 134.699219 373.285156 135.351562 373.117188 " fill-opacity="1" fill-rule="nonzero"/><g clip-path="url(#496cd361e2)"><path fill="#000000" d="M 409.707031 668.890625 C 294.03125 668.890625 188.753906 600.464844 141.523438 494.574219 C 138.796875 488.460938 141.542969 481.292969 147.652344 478.566406 C 153.738281 475.859375 160.921875 478.585938 163.648438 484.699219 C 206.988281 581.878906 303.5625 644.660156 409.707031 644.660156 C 495.226562 644.660156 573.753906 605.265625 625.101562 536.566406 C 629.117188 531.214844 636.703125 530.117188 642.050781 534.132812 C 647.417969 538.128906 648.496094 545.742188 644.503906 551.09375 C 589.347656 624.847656 501.585938 668.890625 409.707031 668.890625 " fill-opacity="1" fill-rule="nonzero"/></g><g clip-path="url(#4a6bae0268)"><path fill="#000000" d="M 606.191406 558.875 C 522.191406 558.875 453.871094 490.152344 453.871094 405.679688 L 453.851562 404.429688 C 453.789062 402.824219 453.765625 401.21875 453.9375 399.609375 C 453.957031 399.421875 453.976562 399.25 454 399.0625 C 454.042969 398.660156 454 397.476562 453.957031 396.609375 C 453.914062 395.570312 453.871094 394.535156 453.871094 393.457031 L 453.871094 360.914062 C 453.871094 354.234375 459.304688 348.800781 465.980469 348.800781 C 472.679688 348.800781 478.089844 354.234375 478.089844 360.914062 L 478.089844 393.457031 C 478.089844 394.175781 478.132812 394.851562 478.171875 395.53125 C 478.238281 397.367188 478.34375 399.652344 478.027344 402.105469 C 477.984375 402.632812 478.046875 403.140625 478.046875 403.648438 C 478.066406 404.324219 478.089844 405.003906 478.089844 405.679688 C 478.089844 476.789062 535.546875 534.640625 606.191406 534.640625 C 615.109375 534.640625 623.898438 533.753906 632.308594 531.976562 C 639.386719 530.601562 646.402344 528.488281 654.582031 525.234375 C 665.125 521.023438 674.785156 515.589844 683.238281 509.140625 C 716.222656 484.421875 735.074219 446.742188 735.074219 405.679688 L 735.074219 259.3125 L 659.929688 306.425781 C 658.003906 307.628906 655.785156 308.265625 653.503906 308.265625 L 559.65625 308.265625 C 557.375 308.265625 555.113281 307.609375 553.191406 306.382812 L 531.382812 292.554688 L 459.578125 247.683594 C 453.894531 244.132812 452.179688 236.644531 455.710938 230.980469 C 459.261719 225.292969 466.742188 223.558594 472.40625 227.109375 L 563.1875 284.03125 L 650.039062 284.03125 L 740.757812 227.132812 C 744.476562 224.785156 749.1875 224.65625 753.054688 226.792969 C 756.902344 228.929688 759.3125 232.988281 759.3125 237.386719 L 759.3125 405.679688 C 759.3125 454.460938 736.910156 499.222656 697.839844 528.46875 C 687.714844 536.207031 676.15625 542.71875 663.542969 547.773438 C 653.863281 551.601562 645.496094 554.117188 637.085938 555.746094 C 627.257812 557.816406 616.796875 558.875 606.191406 558.875 " fill-opacity="1" fill-rule="nonzero"/></g><path fill="#000000" d="M 364.90625 126.183594 L 364.90625 359.941406 C 364.90625 372.460938 370.234375 384.492188 379.507812 392.992188 C 380.523438 393.964844 381.328125 394.621094 382.277344 395.277344 C 382.53125 395.421875 382.765625 395.59375 382.996094 395.78125 C 384.074219 396.609375 385.152344 397.328125 386.335938 398.046875 C 388.636719 399.484375 390.984375 400.605469 394.175781 401.832031 C 395.484375 402.339844 396.246094 402.589844 396.964844 402.738281 C 397.238281 402.78125 397.535156 402.867188 397.808594 402.929688 C 401.402344 403.925781 405.394531 404.453125 409.390625 404.453125 L 411.523438 404.453125 C 412.496094 404.347656 413.382812 404.304688 414.207031 404.304688 C 414.335938 404.285156 414.441406 404.261719 414.546875 404.242188 C 415.433594 404.03125 416.257812 403.925781 416.953125 403.859375 C 418.011719 403.605469 418.941406 403.457031 419.703125 403.332031 C 420.460938 403.121094 421.097656 402.953125 421.730469 402.824219 C 438.425781 398.046875 450.828125 383.835938 453.34375 366.476562 C 453.386719 366.222656 453.449219 365.949219 453.492188 365.671875 C 453.746094 364.507812 453.871094 362.945312 453.871094 360.914062 L 453.871094 226.011719 C 453.871094 176.425781 417.019531 133.710938 368.140625 126.691406 C 367.992188 126.671875 367.84375 126.648438 367.695312 126.609375 C 366.789062 126.4375 365.878906 126.3125 364.90625 126.183594 Z M 424.519531 414.625 L 424.5625 414.625 Z M 421.011719 427.585938 C 421.011719 427.585938 420.992188 427.585938 420.992188 427.585938 C 420.992188 427.585938 421.011719 427.585938 421.011719 427.585938 Z M 419.214844 427.902344 C 419.214844 427.921875 419.214844 427.921875 419.195312 427.921875 C 419.214844 427.921875 419.214844 427.921875 419.214844 427.902344 Z M 419.195312 427.921875 C 418.960938 427.988281 418.730469 428.070312 418.476562 428.136719 C 418.730469 428.070312 418.960938 427.988281 419.195312 427.921875 Z M 412.328125 428.683594 L 409.390625 428.683594 C 403.304688 428.683594 397.386719 427.921875 391.765625 426.402344 C 389.714844 425.976562 387.730469 425.34375 385.382812 424.414062 C 380.863281 422.679688 377.078125 420.839844 373.65625 418.683594 C 371.839844 417.605469 370.125 416.441406 368.457031 415.171875 C 366.34375 413.734375 364.441406 412.171875 362.773438 410.519531 C 348.867188 397.792969 340.667969 379.246094 340.667969 359.941406 L 340.667969 113.390625 C 340.667969 106.691406 346.101562 101.277344 352.800781 101.277344 L 353.453125 101.277344 C 360.320312 101.277344 366.324219 101.742188 371.796875 102.714844 C 432.421875 111.554688 478.089844 164.519531 478.089844 226.011719 L 478.089844 360.914062 C 478.089844 364.550781 477.835938 367.574219 477.265625 370.367188 C 473.207031 397.222656 453.789062 419.148438 427.710938 426.316406 C 427.332031 426.421875 426.929688 426.507812 426.527344 426.570312 C 425.492188 426.867188 424.648438 427.078125 423.738281 427.226562 C 423.359375 427.289062 422.976562 427.332031 422.617188 427.4375 C 421.5 427.796875 420.421875 427.988281 419.257812 428.027344 C 418.855469 428.113281 418.476562 428.175781 418.097656 428.21875 C 416.996094 428.472656 415.792969 428.515625 414.757812 428.515625 C 414.566406 428.515625 414.375 428.535156 414.164062 428.535156 C 413.511719 428.664062 412.980469 428.683594 412.328125 428.683594 " fill-opacity="1" fill-rule="nonzero"/><path fill="#000000" d="M 72.230469 385.886719 C 65.554688 385.886719 60.125 380.472656 60.125 373.769531 C 60.125 355.628906 67.203125 338.460938 80.03125 325.390625 C 93.214844 312.410156 110.394531 305.347656 128.527344 305.347656 C 144.820312 305.347656 159.589844 314.628906 166.207031 329.007812 C 167.324219 331.269531 168.234375 333.703125 168.890625 336.34375 C 168.953125 336.597656 169.015625 336.832031 169.058594 337.085938 C 169.417969 339.050781 169.902344 341.714844 169.902344 344.800781 C 169.902344 347.253906 169.902344 350.320312 168.996094 353.683594 C 167.242188 360.132812 160.585938 363.9375 154.117188 362.203125 C 147.671875 360.449219 143.867188 353.769531 145.621094 347.320312 C 145.664062 346.980469 145.664062 345.710938 145.664062 344.800781 C 145.664062 344.019531 145.515625 343.003906 145.304688 341.882812 C 145.09375 341.101562 144.796875 340.382812 144.332031 339.472656 C 141.566406 333.425781 135.269531 329.578125 128.527344 329.578125 C 116.777344 329.578125 105.664062 334.1875 97.167969 342.539062 C 88.949219 350.890625 84.363281 362.035156 84.363281 373.769531 C 84.363281 380.472656 78.929688 385.886719 72.230469 385.886719 " fill-opacity="1" fill-rule="nonzero"/><path fill="#000000" d="M 133.386719 385.570312 C 126.710938 385.570312 121.277344 380.136719 121.277344 373.453125 C 121.277344 366.960938 126.371094 361.675781 132.773438 361.339844 C 133.007812 361.296875 133.304688 361.230469 133.324219 361.230469 C 139.894531 359.921875 146.257812 364.214844 147.546875 370.769531 C 148.855469 377.324219 144.585938 383.710938 138.015625 385.019531 L 135.667969 373.117188 L 137.742188 385.0625 C 136.769531 385.273438 135.308594 385.570312 133.386719 385.570312 " fill-opacity="1" fill-rule="nonzero"/><path fill="#000000" d="M 133.199219 361.464844 C 133.199219 361.464844 133.175781 361.464844 133.175781 361.464844 C 133.175781 361.464844 133.199219 361.464844 133.199219 361.464844 Z M 136.664062 385.082031 C 131.253906 385.082031 126.308594 381.40625 124.914062 375.929688 C 123.285156 369.414062 127.195312 362.839844 133.683594 361.210938 C 133.683594 361.210938 133.703125 361.210938 133.703125 361.210938 C 133.726562 361.210938 133.554688 361.273438 133.367188 361.378906 C 139.285156 358.503906 146.46875 360.957031 149.425781 366.878906 C 152.425781 372.882812 149.996094 380.15625 144.015625 383.136719 C 142.199219 384.070312 140.59375 384.46875 139.640625 384.703125 C 138.648438 384.957031 137.65625 385.082031 136.664062 385.082031 " fill-opacity="1" fill-rule="nonzero"/><path fill="#000000" d="M 145.769531 380.855469 C 141.863281 380.855469 138.015625 378.953125 135.667969 375.441406 C 131.972656 369.878906 133.472656 362.351562 139.050781 358.632812 C 139.75 358.167969 140.277344 357.722656 141.101562 356.898438 C 141.355469 356.644531 141.628906 356.390625 141.902344 356.15625 C 141.839844 356.15625 142.09375 355.753906 142.367188 355.375 L 162.085938 369.480469 C 161.113281 370.832031 159.800781 372.671875 157.902344 374.363281 C 156.082031 376.140625 154.390625 377.535156 152.46875 378.804688 C 150.398438 380.179688 148.074219 380.855469 145.769531 380.855469 " fill-opacity="1" fill-rule="nonzero"/><path fill="#000000" d="M 154.035156 371.742188 C 151.730469 371.742188 149.382812 371.066406 147.335938 369.691406 C 141.777344 365.988281 140.253906 358.460938 143.972656 352.878906 C 144.101562 352.519531 144.269531 352.140625 144.441406 351.757812 C 144.839844 350.871094 145.03125 350.320312 145.15625 349.855469 C 146.59375 343.300781 153.039062 339.179688 159.570312 340.617188 C 166.121094 342.054688 170.242188 348.523438 168.804688 355.058594 C 168.253906 357.511719 167.472656 359.5625 166.796875 361.125 C 166.140625 362.902344 165.253906 364.65625 164.132812 366.328125 C 161.789062 369.839844 157.964844 371.742188 154.035156 371.742188 " fill-opacity="1" fill-rule="nonzero"/><g clip-path="url(#2c81288afb)"><path fill="#000000" d="M 169.902344 343.808594 C 169.902344 343.808594 169.902344 343.828125 169.902344 343.828125 C 169.902344 343.828125 169.902344 343.808594 169.902344 343.808594 Z M 146.488281 345.035156 C 146.488281 345.054688 146.488281 345.054688 146.488281 345.054688 C 146.488281 345.054688 146.488281 345.054688 146.488281 345.035156 Z M 145.917969 345.5 C 145.917969 345.5 145.917969 345.523438 145.917969 345.523438 C 145.917969 345.523438 145.917969 345.5 145.917969 345.5 Z M 145.664062 347.867188 Z M 145.664062 347.890625 Z M 145.558594 348.226562 C 145.539062 348.546875 145.515625 348.863281 145.515625 349.199219 C 145.515625 348.925781 145.539062 348.585938 145.558594 348.226562 Z M 145.199219 350.492188 Z M 144.480469 352.710938 C 144.398438 352.773438 144.332031 352.835938 144.269531 352.921875 C 144.332031 352.835938 144.398438 352.773438 144.480469 352.710938 Z M 143.722656 353.769531 C 143.722656 353.789062 143.722656 353.789062 143.699219 353.789062 C 143.722656 353.789062 143.722656 353.789062 143.722656 353.769531 Z M 143.402344 356.664062 Z M 143.402344 356.664062 C 143.402344 356.664062 143.402344 356.6875 143.402344 356.6875 C 143.402344 356.6875 143.402344 356.664062 143.402344 356.664062 Z M 137.78125 360.511719 C 137.78125 360.511719 137.78125 360.511719 137.761719 360.511719 C 137.78125 360.511719 137.78125 360.511719 137.78125 360.511719 Z M 135.777344 360.597656 Z M 130.324219 361.699219 C 130.28125 361.71875 130.238281 361.71875 130.195312 361.71875 C 130.238281 361.71875 130.28125 361.71875 130.324219 361.699219 Z M 125.929688 363.898438 C 125.546875 364.191406 125.167969 364.53125 124.808594 364.910156 C 125.167969 364.550781 125.527344 364.214844 125.929688 363.898438 Z M 124.808594 364.910156 C 124.785156 364.910156 124.785156 364.910156 124.785156 364.910156 C 124.785156 364.910156 124.785156 364.910156 124.808594 364.910156 Z M 124.785156 364.933594 C 124.765625 364.933594 124.765625 364.933594 124.765625 364.933594 C 124.765625 364.933594 124.765625 364.933594 124.785156 364.933594 Z M 141.078125 383.964844 Z M 353.515625 663.097656 C 346.839844 663.097656 341.410156 657.683594 341.410156 650.980469 C 341.410156 581.035156 312.414062 506.160156 269.285156 506.160156 L 184.78125 506.160156 C 172.332031 506.160156 160.519531 504.445312 149.152344 501.105469 C 96.746094 485.691406 60.125 436.761719 60.125 382.082031 L 60.125 373.769531 C 60.125 367.089844 65.554688 361.65625 72.230469 361.65625 L 129.816406 361.65625 C 130.089844 361.65625 130.367188 361.675781 130.621094 361.65625 C 130.621094 361.65625 130.621094 361.65625 130.640625 361.65625 C 131.210938 361.507812 131.800781 361.421875 132.414062 361.378906 C 132.648438 361.316406 132.921875 361.253906 133.175781 361.210938 C 133.410156 361.167969 133.621094 361.125 133.808594 361.085938 C 134.085938 361 134.339844 360.9375 134.632812 360.871094 C 134.972656 360.746094 135.332031 360.640625 135.667969 360.554688 C 135.964844 360.386719 136.21875 360.257812 136.492188 360.152344 C 136.894531 359.921875 137.316406 359.730469 137.742188 359.539062 C 138.058594 359.265625 138.691406 358.886719 139.050781 358.632812 C 139.664062 358.230469 140.359375 357.636719 141.101562 356.898438 C 141.585938 356.410156 141.988281 355.902344 142.410156 355.332031 C 142.453125 355.269531 142.515625 355.183594 142.558594 355.121094 C 142.75 354.824219 142.960938 354.488281 143.257812 354.105469 C 143.488281 353.664062 143.761719 353.195312 144.039062 352.773438 C 144.226562 352.246094 144.441406 351.738281 144.691406 351.230469 L 145.09375 350.425781 C 145.15625 350.003906 145.136719 349.898438 145.242188 349.496094 C 145.242188 349.496094 145.242188 349.476562 145.242188 349.476562 C 145.304688 348.652344 145.453125 347.847656 145.6875 347.042969 C 145.707031 346.980469 145.707031 346.917969 145.726562 346.832031 C 145.75 346.558594 145.792969 346.261719 145.835938 345.964844 C 145.726562 345.183594 145.664062 344.464844 145.664062 343.828125 C 145.664062 343.257812 145.621094 343.003906 145.621094 342.984375 C 145.453125 342.519531 145.328125 342.074219 145.242188 341.609375 C 145.222656 341.503906 145.199219 341.398438 145.179688 341.292969 C 145.09375 341.082031 144.988281 340.804688 144.882812 340.511719 C 144.839844 340.40625 144.796875 340.296875 144.734375 340.171875 C 144.460938 339.726562 144.292969 339.367188 144.082031 338.882812 C 141.671875 333.320312 135.921875 329.578125 129.816406 329.578125 C 123.136719 329.578125 117.707031 324.164062 117.707031 317.460938 C 117.707031 310.78125 123.136719 305.347656 129.816406 305.347656 L 157.792969 305.347656 C 182.136719 305.347656 201.960938 285.511719 201.960938 261.152344 L 202.109375 237.324219 C 202.109375 161.179688 264.171875 99.160156 340.4375 99.160156 C 351.53125 99.160156 362.394531 100.410156 372.703125 102.90625 C 431.640625 117.113281 473.988281 167.355469 478.066406 227.957031 C 478.257812 231.042969 478.425781 234.214844 478.425781 237.386719 C 478.425781 244.089844 472.996094 249.523438 466.320312 249.523438 C 459.621094 249.523438 454.210938 244.089844 454.210938 237.386719 C 454.210938 234.699219 454.042969 232.015625 453.894531 229.476562 C 450.554688 179.617188 415.644531 138.175781 367.042969 126.480469 C 358.460938 124.386719 349.757812 123.394531 340.4375 123.394531 C 277.527344 123.394531 226.347656 174.542969 226.347656 237.386719 L 226.175781 261.238281 C 226.175781 296.019531 199.996094 324.882812 166.246094 329.050781 C 166.753906 330 167.15625 330.953125 167.535156 331.902344 C 167.746094 332.410156 167.9375 333.003906 168.066406 333.53125 C 168.277344 333.996094 168.53125 334.757812 168.71875 335.5 C 168.761719 335.667969 168.804688 335.816406 168.847656 335.984375 C 168.867188 336.15625 168.910156 336.324219 168.953125 336.515625 C 169.542969 338.566406 169.839844 340.804688 169.902344 343.175781 C 170.007812 344.019531 170.074219 344.800781 170.074219 345.457031 C 170.074219 346.410156 170.074219 347.785156 169.820312 349.390625 C 169.796875 349.730469 169.734375 350.066406 169.691406 350.386719 C 169.605469 351.378906 169.4375 352.289062 169.207031 353.113281 C 169.101562 353.789062 168.972656 354.382812 168.867188 354.867188 C 168.488281 357.046875 167.832031 359.074219 166.921875 360.9375 C 166.605469 361.867188 166.269531 362.542969 166.097656 362.945312 C 165.699219 363.726562 165.234375 364.65625 164.558594 365.714844 C 164.15625 366.496094 163.5625 367.554688 162.65625 368.675781 C 162.421875 369.035156 162.148438 369.4375 161.789062 369.878906 C 160.648438 371.425781 159.507812 372.757812 158.21875 374.046875 C 156.484375 375.78125 154.75 377.238281 152.976562 378.464844 C 151.519531 379.605469 149.914062 380.601562 148.160156 381.425781 C 147.3125 381.890625 146.300781 382.398438 145.117188 382.820312 C 144.503906 383.074219 143.761719 383.390625 142.9375 383.644531 C 142.261719 383.941406 141.398438 384.28125 140.359375 384.492188 C 139.664062 384.703125 138.945312 384.871094 138.226562 384.976562 C 137.847656 385.042969 137.488281 385.105469 137.105469 385.148438 C 136.683594 385.253906 136.21875 385.335938 135.710938 385.402344 C 135.121094 385.527344 134.507812 385.613281 133.875 385.675781 C 132.308594 385.886719 130.894531 385.886719 129.816406 385.886719 L 84.425781 385.886719 C 86.074219 428.324219 115.046875 465.816406 156 477.847656 C 165.148438 480.554688 174.65625 481.925781 184.292969 481.925781 L 269.285156 481.925781 C 329.597656 481.925781 365.648438 567.882812 365.648438 650.980469 C 365.648438 657.683594 360.214844 663.097656 353.515625 663.097656 " fill-opacity="1" fill-rule="nonzero"/></g><path fill="#000000" d="M 549.199219 393.519531 C 556.253906 393.519531 562.023438 399.167969 562.023438 406.230469 C 562.023438 413.3125 556.253906 418.957031 549.199219 418.957031 C 542.246094 418.957031 536.496094 413.3125 536.496094 406.230469 C 536.496094 399.167969 542.246094 393.519531 549.199219 393.519531 " fill-opacity="1" fill-rule="nonzero"/><path fill="#000000" d="M 663.859375 393.519531 C 670.917969 393.519531 676.6875 399.167969 676.6875 406.230469 C 676.6875 413.3125 670.917969 418.957031 663.859375 418.957031 C 656.925781 418.957031 651.160156 413.3125 651.160156 406.230469 C 651.160156 399.167969 656.925781 393.519531 663.859375 393.519531 " fill-opacity="1" fill-rule="nonzero"/></svg>